<svg xmlns="http://www.w3.org/2000/svg" xmlns:xlink="http://www.w3.org/1999/xlink" width="579" height="606" id="screenshot-4219efb5-ddea-80af-8006-7f6358defc9b" viewBox="128 -103 579 606" fill="none" version="1.1"><g id="shape-4219efb5-ddea-80af-8006-7f6358defc9b"><g class="fills" id="fills-4219efb5-ddea-80af-8006-7f6358defc9b"><path d="M456,262L460,340L512,270L605,36L456,262M456,225L448,141L534,-27L507,125L456,225M339,498L561,258L690,141L402,503L339,498M483,423L565,325L707,241L578,373L483,423M428,502L458,455L688,338L508,501L428,502M316,495L348,449L150,352L316,495M351,432L147,268L257,393L351,432M373,435L389,417L279,286L128,138L373,435M357,349L367,277L227,37L287,266L357,349M376,372L400,403L447,347L415,-103L376,372M373,249L379,120L296,-31L336,152L373,249" style="fill: rgb(106, 168, 79); fill-opacity: 1;"/></g></g></svg>